<svg width="645" height="401" viewBox="0 0 645 401" fill="none" xmlns="http://www.w3.org/2000/svg">
<path d="M116.554 332.734C93.89 332.734 74.7507 344.777 68.8408 361.294H164.266C158.357 344.777 139.217 332.734 116.554 332.734Z" fill="#F68D2E"/>
<path d="M246.734 332.734C224.07 332.734 204.931 344.777 199.021 361.294H294.447C288.537 344.777 269.452 332.734 246.734 332.734Z" fill="#F68D2E"/>
<path d="M184.707 320.477C152.338 320.477 125.012 337.724 116.554 361.251H252.86C244.402 337.724 217.13 320.477 184.707 320.477Z" fill="#F68D2E"/>
<path d="M395.344 292.02C310.228 292.02 238.457 319.99 216.216 358.192H574.386C552.23 319.99 480.459 292.02 395.344 292.02Z" fill="#F68D2E"/>
<path d="M496.69 379.927H76.0568C68.3035 379.927 61.9805 374.911 61.9805 368.76C61.9805 362.61 68.3035 357.594 76.0568 357.594H496.615C504.368 357.594 510.691 362.61 510.691 368.76C510.766 374.97 504.443 379.927 496.69 379.927Z" fill="#E57020"/>
<path d="M21.434 64.0453C29.2428 64.0453 36.2708 68.21 39.9149 74.7173C41.9972 71.0732 45.9017 68.7306 50.5869 68.7306C52.409 68.7306 54.2311 69.2512 56.0531 70.032C58.1355 60.1409 66.7252 52.8527 77.1369 52.8527C79.2192 52.8527 81.3016 53.113 83.1236 53.6335C87.028 43.2218 96.9192 35.9336 108.372 35.9336C123.209 35.9336 135.182 47.9071 135.182 62.7438C135.182 64.3056 134.922 65.8673 134.662 67.4291C135.963 67.1688 137.265 66.9085 138.826 66.9085C144.293 66.9085 148.978 69.5114 151.841 73.6761C152.882 73.4158 153.923 73.4158 154.965 73.4158C155.745 73.4158 156.526 73.4158 157.307 73.6761C159.65 70.5526 163.294 68.7306 167.198 68.7306C172.925 68.7306 177.61 72.635 179.172 77.8408H154.704H109.674H78.9589H65.6839H0.870865C4.51498 69.7717 12.3238 64.0453 21.434 64.0453Z" fill="#FFB81C"/>
<path d="M587.304 11.8157C589.77 5.16844 596.219 0.230469 603.806 0.230469C613.669 0.230469 621.445 8.2072 621.445 17.8932C621.445 18.8428 621.445 19.9824 621.256 20.932C622.204 20.7421 622.963 20.5521 623.911 20.5521C627.515 20.5521 630.549 22.2615 632.636 24.9204C633.205 24.7304 633.964 24.7304 634.533 24.7304C635.102 24.7304 635.671 24.7304 636.05 24.9204C637.567 22.8312 639.843 21.6917 642.499 21.6917C646.292 21.6917 649.327 24.1607 650.275 27.7692H634.153H604.564H584.459H575.734H569.098C565.374 16.5782 574.788 5.92814 587.304 11.8157Z" fill="#FFB81C"/>
<g clip-path="url(#clip0)">
<g filter="url(#filter0_d)">
<path d="M685.545 242.961H510.691V436.321H685.545V242.961Z" fill="white"/>
<path d="M667.207 204.535H510.691V242.961H685.545V222.824V204.535H667.207Z" fill="#01496E"/>
<path d="M665.17 255.832H531.005V262.421H665.17V255.832Z" fill="#01496E"/>
<path d="M665.17 268.949H531.005V272.213H665.17V268.949Z" fill="#3FCDE3"/>
<path d="M603.242 275.043H531.004V278.307H603.242V275.043Z" fill="#3FCDE3"/>
<path d="M633.62 281.141H531.004V284.404H633.62V281.141Z" fill="#3FCDE3"/>
<path d="M650.846 287.238H531.005V290.502H650.846V287.238Z" fill="#3FCDE3"/>
<path d="M650.846 293.395H531.004V296.658H650.846V293.395Z" fill="#3FCDE3"/>
<path d="M560.579 318.457H531.005V321.721H560.579V318.457Z" fill="#3FCDE3"/>
<path d="M560.579 324.555H531.004V327.818H560.579V324.555Z" fill="#3FCDE3"/>
<path d="M560.579 330.652H531.004V333.916H560.579V330.652Z" fill="#3FCDE3"/>
<path d="M560.579 336.746H531.004V340.01H560.579V336.746Z" fill="#3FCDE3"/>
<path d="M560.579 342.902H531.004V346.166H560.579V342.902Z" fill="#3FCDE3"/>
<path d="M594.167 318.457H564.592V321.721H594.167V318.457Z" fill="#3FCDE3"/>
<path d="M594.167 324.555H564.592V327.818H594.167V324.555Z" fill="#3FCDE3"/>
<path d="M594.167 330.652H564.592V333.916H594.167V330.652Z" fill="#3FCDE3"/>
<path d="M594.167 336.746H564.592V340.01H594.167V336.746Z" fill="#3FCDE3"/>
<path d="M594.167 342.902H564.592V346.166H594.167V342.902Z" fill="#3FCDE3"/>
<path d="M665.232 318.457H598.119V321.721H665.232V318.457Z" fill="#3FCDE3"/>
<path d="M665.232 324.555H598.119V327.818H665.232V324.555Z" fill="#3FCDE3"/>
<path d="M665.232 330.652H598.119V333.916H665.232V330.652Z" fill="#3FCDE3"/>
<path d="M665.232 336.746H598.119V340.01H665.232V336.746Z" fill="#3FCDE3"/>
<path d="M665.232 342.902H598.119V346.166H665.232V342.902Z" fill="#3FCDE3"/>
<path d="M665.17 368.645H531.004V371.908H665.17V368.645Z" fill="#3FCDE3"/>
<path d="M644.795 374.742H531.005V378.006H644.795V374.742Z" fill="#3FCDE3"/>
<path d="M644.795 380.836H531.005V384.1H644.795V380.836Z" fill="#3FCDE3"/>
<path d="M586.758 393.09H531.005V396.354H586.758V393.09Z" fill="#3FCDE3"/>
<path d="M586.757 399.25H531.004V402.514H586.757V399.25Z" fill="#3FCDE3"/>
<path d="M665.17 305.832H531.005V312.421H665.17V305.832Z" fill="#01496E"/>
<path d="M665.17 355.898H531.004V362.487H665.17V355.898Z" fill="#01496E"/>
<path d="M577.064 221.715H533.722V229.043H577.064V221.715Z" fill="white"/>
<path d="M662.515 221.715H584.535V229.043H662.515V221.715Z" fill="white"/>
<path d="M651.587 387.672C642.881 387.672 635.842 394.692 635.842 403.375C635.842 412.057 642.881 419.077 651.587 419.077C660.292 419.077 667.331 412.057 667.331 403.375C667.331 394.692 660.23 387.672 651.587 387.672ZM651.587 416.43C644.363 416.43 638.497 410.579 638.497 403.375C638.497 396.17 644.363 390.32 651.587 390.32C658.81 390.32 664.676 396.17 664.676 403.375C664.676 410.579 658.81 416.43 651.587 416.43Z" fill="#E57020"/>
<path d="M645.474 397.279C642.14 400.604 642.14 406.023 645.474 409.349L657.576 397.279C654.303 393.954 648.87 393.954 645.474 397.279Z" fill="#E57020"/>
</g>
<g filter="url(#filter1_d)">
<path d="M658.744 221.543H483.891V414.903H658.744V221.543Z" fill="white"/>
<path d="M640.407 183.117H483.891V221.543H658.744V201.406V183.117H640.407Z" fill="#01496E"/>
<path d="M638.369 234.414H504.204V241.003H638.369V234.414Z" fill="#01496E"/>
<path d="M638.369 247.531H504.204V250.795H638.369V247.531Z" fill="#3FCDE3"/>
<path d="M576.442 253.625H504.204V256.889H576.442V253.625Z" fill="#3FCDE3"/>
<path d="M606.819 259.723H504.204V262.986H606.819V259.723Z" fill="#3FCDE3"/>
<path d="M624.045 265.82H504.204V269.084H624.045V265.82Z" fill="#3FCDE3"/>
<path d="M624.045 271.977H504.204V275.24H624.045V271.977Z" fill="#3FCDE3"/>
<path d="M533.779 297.039H504.204V300.303H533.779V297.039Z" fill="#3FCDE3"/>
<path d="M533.778 303.137H504.204V306.4H533.778V303.137Z" fill="#3FCDE3"/>
<path d="M533.778 309.234H504.204V312.498H533.778V309.234Z" fill="#3FCDE3"/>
<path d="M533.778 315.328H504.204V318.592H533.778V315.328Z" fill="#3FCDE3"/>
<path d="M533.778 321.484H504.204V324.748H533.778V321.484Z" fill="#3FCDE3"/>
<path d="M567.366 297.039H537.792V300.303H567.366V297.039Z" fill="#3FCDE3"/>
<path d="M567.366 303.137H537.792V306.4H567.366V303.137Z" fill="#3FCDE3"/>
<path d="M567.366 309.234H537.792V312.498H567.366V309.234Z" fill="#3FCDE3"/>
<path d="M567.366 315.328H537.792V318.592H567.366V315.328Z" fill="#3FCDE3"/>
<path d="M567.366 321.484H537.792V324.748H567.366V321.484Z" fill="#3FCDE3"/>
<path d="M638.431 297.039H571.317V300.303H638.431V297.039Z" fill="#3FCDE3"/>
<path d="M638.431 303.137H571.317V306.4H638.431V303.137Z" fill="#3FCDE3"/>
<path d="M638.431 309.234H571.317V312.498H638.431V309.234Z" fill="#3FCDE3"/>
<path d="M638.431 315.328H571.317V318.592H638.431V315.328Z" fill="#3FCDE3"/>
<path d="M638.431 321.484H571.317V324.748H638.431V321.484Z" fill="#3FCDE3"/>
<path d="M638.369 347.227H504.204V350.49H638.369V347.227Z" fill="#3FCDE3"/>
<path d="M617.994 353.324H504.204V356.588H617.994V353.324Z" fill="#3FCDE3"/>
<path d="M617.995 359.418H504.204V362.682H617.995V359.418Z" fill="#3FCDE3"/>
<path d="M559.957 371.672H504.204V374.936H559.957V371.672Z" fill="#3FCDE3"/>
<path d="M559.957 377.832H504.204V381.096H559.957V377.832Z" fill="#3FCDE3"/>
<path d="M638.369 284.414H504.204V291.003H638.369V284.414Z" fill="#01496E"/>
<path d="M638.369 334.48H504.204V341.069H638.369V334.48Z" fill="#01496E"/>
<path d="M550.264 200.297H506.921V207.625H550.264V200.297Z" fill="white"/>
<path d="M635.714 200.297H557.734V207.625H635.714V200.297Z" fill="white"/>
<path d="M624.786 366.254C616.08 366.254 609.042 373.274 609.042 381.957C609.042 390.639 616.08 397.659 624.786 397.659C633.491 397.659 640.53 390.639 640.53 381.957C640.53 373.274 633.43 366.254 624.786 366.254ZM624.786 395.012C617.562 395.012 611.696 389.161 611.696 381.957C611.696 374.752 617.562 368.902 624.786 368.902C632.01 368.902 637.875 374.752 637.875 381.957C637.875 389.161 632.01 395.012 624.786 395.012Z" fill="#E57020"/>
<path d="M618.673 375.861C615.339 379.186 615.339 384.605 618.673 387.931L630.775 375.861C627.502 372.536 622.069 372.536 618.673 375.861Z" fill="#E57020"/>
<path d="M630.837 375.859L618.735 387.929C622.069 391.254 627.503 391.254 630.837 387.929C634.171 384.604 634.171 379.246 630.837 375.859Z" fill="#BF3E00"/>
</g>
<g filter="url(#filter2_d)">
<path d="M631.684 200.125H456.831V393.485H631.684V200.125Z" fill="white"/>
<path d="M613.347 161.699H456.831V200.125H631.684V179.988V161.699H613.347Z" fill="#01496E"/>
<path d="M611.31 212.996H477.145V219.585H611.31V212.996Z" fill="#01496E"/>
<path d="M611.31 226.113H477.145V229.377H611.31V226.113Z" fill="#3FCDE3"/>
<path d="M549.382 232.207H477.144V235.471H549.382V232.207Z" fill="#3FCDE3"/>
<path d="M579.759 238.305H477.144V241.568H579.759V238.305Z" fill="#3FCDE3"/>
<path d="M596.986 244.402H477.145V247.666H596.986V244.402Z" fill="#3FCDE3"/>
<path d="M596.985 250.559H477.144V253.822H596.985V250.559Z" fill="#3FCDE3"/>
<path d="M506.719 275.621H477.145V278.885H506.719V275.621Z" fill="#3FCDE3"/>
<path d="M506.718 281.719H477.144V284.982H506.718V281.719Z" fill="#3FCDE3"/>
<path d="M506.718 287.816H477.144V291.08H506.718V287.816Z" fill="#3FCDE3"/>
<path d="M506.718 293.91H477.144V297.174H506.718V293.91Z" fill="#3FCDE3"/>
<path d="M506.718 300.066H477.144V303.33H506.718V300.066Z" fill="#3FCDE3"/>
<path d="M540.306 275.621H510.732V278.885H540.306V275.621Z" fill="#3FCDE3"/>
<path d="M540.306 281.719H510.732V284.982H540.306V281.719Z" fill="#3FCDE3"/>
<path d="M540.306 287.816H510.732V291.08H540.306V287.816Z" fill="#3FCDE3"/>
<path d="M540.306 293.91H510.732V297.174H540.306V293.91Z" fill="#3FCDE3"/>
<path d="M540.306 300.066H510.732V303.33H540.306V300.066Z" fill="#3FCDE3"/>
<path d="M611.371 275.621H544.258V278.885H611.371V275.621Z" fill="#3FCDE3"/>
<path d="M611.371 281.719H544.258V284.982H611.371V281.719Z" fill="#3FCDE3"/>
<path d="M611.371 287.816H544.258V291.08H611.371V287.816Z" fill="#3FCDE3"/>
<path d="M611.371 293.91H544.258V297.174H611.371V293.91Z" fill="#3FCDE3"/>
<path d="M611.371 300.066H544.258V303.33H611.371V300.066Z" fill="#3FCDE3"/>
<path d="M611.309 325.809H477.144V329.072H611.309V325.809Z" fill="#3FCDE3"/>
<path d="M590.935 331.906H477.145V335.17H590.935V331.906Z" fill="#3FCDE3"/>
<path d="M590.935 338H477.145V341.264H590.935V338Z" fill="#3FCDE3"/>
<path d="M532.897 350.254H477.145V353.518H532.897V350.254Z" fill="#3FCDE3"/>
<path d="M532.897 356.414H477.144V359.678H532.897V356.414Z" fill="#3FCDE3"/>
<path d="M611.31 262.996H477.145V269.585H611.31V262.996Z" fill="#01496E"/>
<path d="M611.309 313.062H477.144V319.652H611.309V313.062Z" fill="#01496E"/>
<path d="M523.204 178.879H479.861V186.207H523.204V178.879Z" fill="white"/>
<path d="M608.655 178.879H530.675V186.207H608.655V178.879Z" fill="white"/>
<path d="M597.726 344.836C589.02 344.836 581.981 351.856 581.981 360.539C581.981 369.221 589.02 376.242 597.726 376.242C606.431 376.242 613.47 369.221 613.47 360.539C613.47 351.856 606.37 344.836 597.726 344.836ZM597.726 373.594C590.502 373.594 584.636 367.744 584.636 360.539C584.636 353.334 590.502 347.484 597.726 347.484C604.95 347.484 610.815 353.334 610.815 360.539C610.815 367.744 604.95 373.594 597.726 373.594Z" fill="#E57020"/>
<path d="M591.614 354.443C588.28 357.768 588.28 363.187 591.614 366.513L603.715 354.443C600.443 351.118 595.01 351.118 591.614 354.443Z" fill="#E57020"/>
<path d="M603.777 354.445L591.676 366.515C595.01 369.84 600.443 369.84 603.777 366.515C607.111 363.19 607.111 357.832 603.777 354.445Z" fill="#BF3E00"/>
</g>
<g filter="url(#filter3_d)">
<path d="M605.096 179.332H430.243V372.692H605.096V179.332Z" fill="white"/>
<path d="M586.759 140.906H430.243V179.332H605.096V159.195V140.906H586.759Z" fill="#01496E"/>
<path d="M584.722 192.203H450.557V198.792H584.722V192.203Z" fill="#01496E"/>
<path d="M584.722 205.32H450.557V208.584H584.722V205.32Z" fill="#3FCDE3"/>
<path d="M522.794 211.414H450.556V214.678H522.794V211.414Z" fill="#3FCDE3"/>
<path d="M553.171 217.512H450.556V220.775H553.171V217.512Z" fill="#3FCDE3"/>
<path d="M570.398 223.609H450.557V226.873H570.398V223.609Z" fill="#3FCDE3"/>
<path d="M570.397 229.766H450.556V233.029H570.397V229.766Z" fill="#3FCDE3"/>
<path d="M480.131 254.828H450.557V258.092H480.131V254.828Z" fill="#3FCDE3"/>
<path d="M480.131 260.926H450.556V264.189H480.131V260.926Z" fill="#3FCDE3"/>
<path d="M480.131 267.023H450.556V270.287H480.131V267.023Z" fill="#3FCDE3"/>
<path d="M480.131 273.117H450.556V276.381H480.131V273.117Z" fill="#3FCDE3"/>
<path d="M480.131 279.273H450.556V282.537H480.131V279.273Z" fill="#3FCDE3"/>
<path d="M513.718 254.828H484.144V258.092H513.718V254.828Z" fill="#3FCDE3"/>
<path d="M513.718 260.926H484.144V264.189H513.718V260.926Z" fill="#3FCDE3"/>
<path d="M513.718 267.023H484.144V270.287H513.718V267.023Z" fill="#3FCDE3"/>
<path d="M513.718 273.117H484.144V276.381H513.718V273.117Z" fill="#3FCDE3"/>
<path d="M513.718 279.273H484.144V282.537H513.718V279.273Z" fill="#3FCDE3"/>
<path d="M584.783 254.828H517.67V258.092H584.783V254.828Z" fill="#3FCDE3"/>
<path d="M584.783 260.926H517.67V264.189H584.783V260.926Z" fill="#3FCDE3"/>
<path d="M584.783 267.023H517.67V270.287H584.783V267.023Z" fill="#3FCDE3"/>
<path d="M584.783 273.117H517.67V276.381H584.783V273.117Z" fill="#3FCDE3"/>
<path d="M584.783 279.273H517.67V282.537H584.783V279.273Z" fill="#3FCDE3"/>
<path d="M584.721 305.016H450.556V308.279H584.721V305.016Z" fill="#3FCDE3"/>
<path d="M564.347 311.113H450.556V314.377H564.347V311.113Z" fill="#3FCDE3"/>
<path d="M564.347 317.207H450.557V320.471H564.347V317.207Z" fill="#3FCDE3"/>
<path d="M506.31 329.461H450.557V332.725H506.31V329.461Z" fill="#3FCDE3"/>
<path d="M506.309 335.621H450.556V338.885H506.309V335.621Z" fill="#3FCDE3"/>
<path d="M584.722 242.203H450.557V248.792H584.722V242.203Z" fill="#01496E"/>
<path d="M584.721 292.27H450.556V298.859H584.721V292.27Z" fill="#01496E"/>
<path d="M496.616 158.086H453.273V165.414H496.616V158.086Z" fill="white"/>
<path d="M582.067 158.086H504.087V165.414H582.067V158.086Z" fill="white"/>
<path d="M571.138 324.043C562.432 324.043 555.394 331.063 555.394 339.746C555.394 348.428 562.432 355.449 571.138 355.449C579.843 355.449 586.882 348.428 586.882 339.746C586.882 331.063 579.782 324.043 571.138 324.043ZM571.138 352.801C563.914 352.801 558.048 346.951 558.048 339.746C558.048 332.541 563.914 326.691 571.138 326.691C578.362 326.691 584.227 332.541 584.227 339.746C584.227 346.951 578.362 352.801 571.138 352.801Z" fill="#E57020"/>
<path d="M565.025 333.65C561.691 336.976 561.691 342.395 565.025 345.72L577.127 333.65C573.855 330.325 568.421 330.325 565.025 333.65Z" fill="#E57020"/>
<path d="M577.189 333.652L565.087 345.722C568.421 349.047 573.855 349.047 577.189 345.722C580.523 342.397 580.523 337.039 577.189 333.652Z" fill="#BF3E00"/>
</g>
<g filter="url(#filter4_d)">
<path d="M578.526 158.234H403.673V351.594H578.526V158.234Z" fill="white"/>
<path d="M560.189 119.809H403.673V158.234H578.526V138.098V119.809H560.189Z" fill="#01496E"/>
<path d="M558.152 171.105H423.986V177.694H558.152V171.105Z" fill="#01496E"/>
<path d="M558.152 184.223H423.986V187.486H558.152V184.223Z" fill="#3FCDE3"/>
<path d="M496.224 190.316H423.986V193.58H496.224V190.316Z" fill="#3FCDE3"/>
<path d="M526.601 196.414H423.986V199.678H526.601V196.414Z" fill="#3FCDE3"/>
<path d="M543.827 202.512H423.986V205.775H543.827V202.512Z" fill="#3FCDE3"/>
<path d="M543.827 208.668H423.986V211.932H543.827V208.668Z" fill="#3FCDE3"/>
<path d="M453.561 233.73H423.986V236.994H453.561V233.73Z" fill="#3FCDE3"/>
<path d="M453.56 239.828H423.986V243.092H453.56V239.828Z" fill="#3FCDE3"/>
<path d="M453.56 245.926H423.986V249.189H453.56V245.926Z" fill="#3FCDE3"/>
<path d="M453.56 252.02H423.986V255.283H453.56V252.02Z" fill="#3FCDE3"/>
<path d="M453.56 258.176H423.986V261.439H453.56V258.176Z" fill="#3FCDE3"/>
<path d="M487.148 233.73H457.574V236.994H487.148V233.73Z" fill="#3FCDE3"/>
<path d="M487.148 239.828H457.574V243.092H487.148V239.828Z" fill="#3FCDE3"/>
<path d="M487.148 245.926H457.574V249.189H487.148V245.926Z" fill="#3FCDE3"/>
<path d="M487.148 252.02H457.574V255.283H487.148V252.02Z" fill="#3FCDE3"/>
<path d="M487.148 258.176H457.574V261.439H487.148V258.176Z" fill="#3FCDE3"/>
<path d="M558.213 233.73H491.1V236.994H558.213V233.73Z" fill="#3FCDE3"/>
<path d="M558.213 239.828H491.1V243.092H558.213V239.828Z" fill="#3FCDE3"/>
<path d="M558.213 245.926H491.1V249.189H558.213V245.926Z" fill="#3FCDE3"/>
<path d="M558.213 252.02H491.1V255.283H558.213V252.02Z" fill="#3FCDE3"/>
<path d="M558.213 258.176H491.1V261.439H558.213V258.176Z" fill="#3FCDE3"/>
<path d="M558.151 283.918H423.986V287.182H558.151V283.918Z" fill="#3FCDE3"/>
<path d="M537.777 290.016H423.986V293.279H537.777V290.016Z" fill="#3FCDE3"/>
<path d="M537.777 296.109H423.986V299.373H537.777V296.109Z" fill="#3FCDE3"/>
<path d="M479.739 308.363H423.986V311.627H479.739V308.363Z" fill="#3FCDE3"/>
<path d="M479.739 314.523H423.986V317.787H479.739V314.523Z" fill="#3FCDE3"/>
<path d="M558.152 221.105H423.986V227.695H558.152V221.105Z" fill="#01496E"/>
<path d="M558.151 271.172H423.986V277.761H558.151V271.172Z" fill="#01496E"/>
<path d="M470.046 136.988H426.703V144.316H470.046V136.988Z" fill="white"/>
<path d="M555.497 136.988H477.517V144.316H555.497V136.988Z" fill="white"/>
<path d="M544.568 302.945C535.862 302.945 528.824 309.965 528.824 318.648C528.824 327.331 535.862 334.351 544.568 334.351C553.274 334.351 560.312 327.331 560.312 318.648C560.312 309.965 553.212 302.945 544.568 302.945ZM544.568 331.703C537.344 331.703 531.479 325.853 531.479 318.648C531.479 311.443 537.344 305.593 544.568 305.593C551.792 305.593 557.657 311.443 557.657 318.648C557.657 325.853 551.792 331.703 544.568 331.703Z" fill="#E57020"/>
<path d="M538.456 312.553C535.122 315.878 535.122 321.297 538.456 324.622L550.557 312.553C547.285 309.227 541.851 309.227 538.456 312.553Z" fill="#E57020"/>
<path d="M550.619 312.555L538.518 324.624C541.852 327.95 547.285 327.95 550.619 324.624C553.953 321.299 553.953 315.942 550.619 312.555Z" fill="#BF3E00"/>
</g>
<g filter="url(#filter5_d)">
<path d="M552.273 136.938H377.42V330.297H552.273V136.938Z" fill="white"/>
<path d="M533.936 98.5117H377.42V136.937H552.273V116.801V98.5117H533.936Z" fill="#01496E"/>
<path d="M531.899 149.809H397.733V156.398H531.899V149.809Z" fill="#01496E"/>
<path d="M531.899 162.926H397.733V166.189H531.899V162.926Z" fill="#3FCDE3"/>
<path d="M469.971 169.02H397.733V172.283H469.971V169.02Z" fill="#3FCDE3"/>
<path d="M500.348 175.117H397.733V178.381H500.348V175.117Z" fill="#3FCDE3"/>
<path d="M517.575 181.215H397.733V184.479H517.575V181.215Z" fill="#3FCDE3"/>
<path d="M517.574 187.371H397.733V190.635H517.574V187.371Z" fill="#3FCDE3"/>
<path d="M427.308 212.434H397.733V215.697H427.308V212.434Z" fill="#3FCDE3"/>
<path d="M427.307 218.531H397.733V221.795H427.307V218.531Z" fill="#3FCDE3"/>
<path d="M427.307 224.629H397.733V227.893H427.307V224.629Z" fill="#3FCDE3"/>
<path d="M427.307 230.723H397.733V233.986H427.307V230.723Z" fill="#3FCDE3"/>
<path d="M427.307 236.879H397.733V240.143H427.307V236.879Z" fill="#3FCDE3"/>
<path d="M460.895 212.434H431.321V215.697H460.895V212.434Z" fill="#3FCDE3"/>
<path d="M460.895 218.531H431.321V221.795H460.895V218.531Z" fill="#3FCDE3"/>
<path d="M460.895 224.629H431.321V227.893H460.895V224.629Z" fill="#3FCDE3"/>
<path d="M460.895 230.723H431.321V233.986H460.895V230.723Z" fill="#3FCDE3"/>
<path d="M460.895 236.879H431.321V240.143H460.895V236.879Z" fill="#3FCDE3"/>
<path d="M531.96 212.434H464.847V215.697H531.96V212.434Z" fill="#3FCDE3"/>
<path d="M531.96 218.531H464.847V221.795H531.96V218.531Z" fill="#3FCDE3"/>
<path d="M531.96 224.629H464.847V227.893H531.96V224.629Z" fill="#3FCDE3"/>
<path d="M531.96 230.723H464.847V233.986H531.96V230.723Z" fill="#3FCDE3"/>
<path d="M531.96 236.879H464.847V240.143H531.96V236.879Z" fill="#3FCDE3"/>
<path d="M531.898 262.621H397.733V265.885H531.898V262.621Z" fill="#3FCDE3"/>
<path d="M511.523 268.719H397.733V271.982H511.523V268.719Z" fill="#3FCDE3"/>
<path d="M511.524 274.812H397.733V278.076H511.524V274.812Z" fill="#3FCDE3"/>
<path d="M453.486 287.066H397.733V290.33H453.486V287.066Z" fill="#3FCDE3"/>
<path d="M453.486 293.227H397.733V296.49H453.486V293.227Z" fill="#3FCDE3"/>
<path d="M531.899 199.809H397.733V206.398H531.899V199.809Z" fill="#01496E"/>
<path d="M531.898 249.875H397.733V256.464H531.898V249.875Z" fill="#01496E"/>
<path d="M443.793 115.691H400.45V123.019H443.793V115.691Z" fill="white"/>
<path d="M529.244 115.691H451.264V123.019H529.244V115.691Z" fill="white"/>
<path d="M518.315 281.648C509.609 281.648 502.571 288.669 502.571 297.351C502.571 306.034 509.609 313.054 518.315 313.054C527.021 313.054 534.059 306.034 534.059 297.351C534.059 288.669 526.959 281.648 518.315 281.648ZM518.315 310.406C511.091 310.406 505.226 304.556 505.226 297.351C505.226 290.146 511.091 284.296 518.315 284.296C525.539 284.296 531.404 290.146 531.404 297.351C531.404 304.556 525.539 310.406 518.315 310.406Z" fill="#E57020"/>
<path d="M512.203 291.256C508.869 294.581 508.869 300 512.203 303.325L524.304 291.256C521.032 287.93 515.598 287.93 512.203 291.256Z" fill="#E57020"/>
<path d="M524.366 291.258L512.265 303.327C515.599 306.653 521.032 306.653 524.366 303.327C527.7 300.002 527.7 294.645 524.366 291.258Z" fill="#BF3E00"/>
</g>
<g filter="url(#filter6_d)">
<path d="M525.76 116.246H350.907V309.606H525.76V116.246Z" fill="white"/>
<path d="M507.423 77.8203H350.907V116.246H525.76V96.1094V77.8203H507.423Z" fill="#01496E"/>
<path d="M505.385 129.117H371.22V135.706H505.385V129.117Z" fill="#01496E"/>
<path d="M505.385 142.234H371.22V145.498H505.385V142.234Z" fill="#3FCDE3"/>
<path d="M443.458 148.328H371.22V151.592H443.458V148.328Z" fill="#3FCDE3"/>
<path d="M473.835 154.426H371.22V157.689H473.835V154.426Z" fill="#3FCDE3"/>
<path d="M491.061 160.523H371.22V163.787H491.061V160.523Z" fill="#3FCDE3"/>
<path d="M491.061 166.68H371.22V169.943H491.061V166.68Z" fill="#3FCDE3"/>
<path d="M400.794 191.742H371.22V195.006H400.794V191.742Z" fill="#3FCDE3"/>
<path d="M400.794 197.84H371.22V201.104H400.794V197.84Z" fill="#3FCDE3"/>
<path d="M400.794 203.938H371.22V207.201H400.794V203.938Z" fill="#3FCDE3"/>
<path d="M400.794 210.031H371.22V213.295H400.794V210.031Z" fill="#3FCDE3"/>
<path d="M400.794 216.188H371.22V219.451H400.794V216.188Z" fill="#3FCDE3"/>
<path d="M434.382 191.742H404.808V195.006H434.382V191.742Z" fill="#3FCDE3"/>
<path d="M434.382 197.84H404.808V201.104H434.382V197.84Z" fill="#3FCDE3"/>
<path d="M434.382 203.938H404.808V207.201H434.382V203.938Z" fill="#3FCDE3"/>
<path d="M434.382 210.031H404.808V213.295H434.382V210.031Z" fill="#3FCDE3"/>
<path d="M434.382 216.188H404.808V219.451H434.382V216.188Z" fill="#3FCDE3"/>
<path d="M505.447 191.742H438.333V195.006H505.447V191.742Z" fill="#3FCDE3"/>
<path d="M505.447 197.84H438.333V201.104H505.447V197.84Z" fill="#3FCDE3"/>
<path d="M505.447 203.938H438.333V207.201H505.447V203.938Z" fill="#3FCDE3"/>
<path d="M505.447 210.031H438.333V213.295H505.447V210.031Z" fill="#3FCDE3"/>
<path d="M505.447 216.188H438.333V219.451H505.447V216.188Z" fill="#3FCDE3"/>
<path d="M505.385 241.93H371.22V245.193H505.385V241.93Z" fill="#3FCDE3"/>
<path d="M485.01 248.027H371.22V251.291H485.01V248.027Z" fill="#3FCDE3"/>
<path d="M485.01 254.121H371.22V257.385H485.01V254.121Z" fill="#3FCDE3"/>
<path d="M426.973 266.375H371.22V269.639H426.973V266.375Z" fill="#3FCDE3"/>
<path d="M426.973 272.535H371.22V275.799H426.973V272.535Z" fill="#3FCDE3"/>
<path d="M505.385 179.117H371.22V185.706H505.385V179.117Z" fill="#01496E"/>
<path d="M505.385 229.184H371.22V235.773H505.385V229.184Z" fill="#01496E"/>
<path d="M417.279 95H373.937V102.328H417.279V95Z" fill="white"/>
<path d="M502.73 95H424.75V102.328H502.73V95Z" fill="white"/>
<path d="M491.801 260.957C483.096 260.957 476.057 267.977 476.057 276.66C476.057 285.343 483.096 292.363 491.801 292.363C500.507 292.363 507.546 285.343 507.546 276.66C507.546 267.977 500.445 260.957 491.801 260.957ZM491.801 289.715C484.578 289.715 478.712 283.865 478.712 276.66C478.712 269.455 484.578 263.605 491.801 263.605C499.025 263.605 504.891 269.455 504.891 276.66C504.891 283.865 499.025 289.715 491.801 289.715Z" fill="#E57020"/>
<path d="M485.69 270.564C482.355 273.89 482.355 279.309 485.69 282.634L497.791 270.564C494.519 267.239 489.085 267.239 485.69 270.564Z" fill="#E57020"/>
<path d="M497.853 270.566L485.752 282.636C489.086 285.961 494.519 285.961 497.853 282.636C501.187 279.311 501.187 273.953 497.853 270.566Z" fill="#BF3E00"/>
</g>
<g filter="url(#filter7_d)">
<path d="M499.048 94.6289H324.195V287.989H499.048V94.6289Z" fill="white"/>
<path d="M480.712 56.2031H324.196V94.6288H499.049V74.4923V56.2031H480.712Z" fill="#01496E"/>
<path d="M478.674 107.5H344.509V114.089H478.674V107.5Z" fill="#01496E"/>
<path d="M478.674 120.617H344.509V123.881H478.674V120.617Z" fill="#3FCDE3"/>
<path d="M416.747 126.711H344.509V129.975H416.747V126.711Z" fill="#3FCDE3"/>
<path d="M447.124 132.809H344.509V136.072H447.124V132.809Z" fill="#3FCDE3"/>
<path d="M464.35 138.906H344.509V142.17H464.35V138.906Z" fill="#3FCDE3"/>
<path d="M464.35 145.062H344.509V148.326H464.35V145.062Z" fill="#3FCDE3"/>
<path d="M374.083 170.125H344.509V173.389H374.083V170.125Z" fill="#3FCDE3"/>
<path d="M374.083 176.223H344.509V179.486H374.083V176.223Z" fill="#3FCDE3"/>
<path d="M374.083 182.32H344.509V185.584H374.083V182.32Z" fill="#3FCDE3"/>
<path d="M374.083 188.414H344.509V191.678H374.083V188.414Z" fill="#3FCDE3"/>
<path d="M374.083 194.57H344.509V197.834H374.083V194.57Z" fill="#3FCDE3"/>
<path d="M407.671 170.125H378.096V173.389H407.671V170.125Z" fill="#3FCDE3"/>
<path d="M407.671 176.223H378.096V179.486H407.671V176.223Z" fill="#3FCDE3"/>
<path d="M407.671 182.32H378.096V185.584H407.671V182.32Z" fill="#3FCDE3"/>
<path d="M407.671 188.414H378.096V191.678H407.671V188.414Z" fill="#3FCDE3"/>
<path d="M407.671 194.57H378.096V197.834H407.671V194.57Z" fill="#3FCDE3"/>
<path d="M478.736 170.125H411.622V173.389H478.736V170.125Z" fill="#3FCDE3"/>
<path d="M478.736 176.223H411.622V179.486H478.736V176.223Z" fill="#3FCDE3"/>
<path d="M478.736 182.32H411.622V185.584H478.736V182.32Z" fill="#3FCDE3"/>
<path d="M478.736 188.414H411.622V191.678H478.736V188.414Z" fill="#3FCDE3"/>
<path d="M478.736 194.57H411.622V197.834H478.736V194.57Z" fill="#3FCDE3"/>
<path d="M478.674 220.312H344.509V223.576H478.674V220.312Z" fill="#3FCDE3"/>
<path d="M458.299 226.41H344.509V229.674H458.299V226.41Z" fill="#3FCDE3"/>
<path d="M458.299 232.504H344.509V235.768H458.299V232.504Z" fill="#3FCDE3"/>
<path d="M400.262 244.758H344.509V248.021H400.262V244.758Z" fill="#3FCDE3"/>
<path d="M400.262 250.918H344.509V254.182H400.262V250.918Z" fill="#3FCDE3"/>
<path d="M478.674 157.5H344.509V164.089H478.674V157.5Z" fill="#01496E"/>
<path d="M478.674 207.566H344.509V214.155H478.674V207.566Z" fill="#01496E"/>
<path d="M390.568 73.3828H347.226V80.7108H390.568V73.3828Z" fill="white"/>
<path d="M476.019 73.3828H398.039V80.7108H476.019V73.3828Z" fill="white"/>
<path d="M465.09 239.34C456.385 239.34 449.346 246.36 449.346 255.043C449.346 263.725 456.385 270.745 465.09 270.745C473.796 270.745 480.835 263.725 480.835 255.043C480.835 246.36 473.734 239.34 465.09 239.34ZM465.09 268.098C457.867 268.098 452.001 262.247 452.001 255.043C452.001 247.838 457.867 241.988 465.09 241.988C472.314 241.988 478.18 247.838 478.18 255.043C478.18 262.247 472.314 268.098 465.09 268.098Z" fill="#E57020"/>
<path d="M458.979 248.947C455.645 252.272 455.645 257.691 458.979 261.017L471.08 248.947C467.808 245.622 462.374 245.622 458.979 248.947Z" fill="#E57020"/>
<path d="M471.142 248.949L459.041 261.019C462.375 264.344 467.808 264.344 471.142 261.019C474.476 257.694 474.476 252.336 471.142 248.949Z" fill="#BF3E00"/>
</g>
<g filter="url(#filter8_d)">
<path d="M472.923 73.2461H298.07V266.606H472.923V73.2461Z" fill="white"/>
<path d="M454.586 34.8203H298.07V73.2459H472.923V53.1094V34.8203H454.586Z" fill="#01496E"/>
<path d="M452.549 86.1172H318.383V92.7062H452.549V86.1172Z" fill="#01496E"/>
<path d="M452.549 99.2344H318.383V102.498H452.549V99.2344Z" fill="#3FCDE3"/>
<path d="M390.621 105.328H318.383V108.592H390.621V105.328Z" fill="#3FCDE3"/>
<path d="M420.998 111.426H318.383V114.69H420.998V111.426Z" fill="#3FCDE3"/>
<path d="M438.224 117.523H318.383V120.787H438.224V117.523Z" fill="#3FCDE3"/>
<path d="M438.224 123.68H318.383V126.943H438.224V123.68Z" fill="#3FCDE3"/>
<path d="M347.958 148.742H318.383V152.006H347.958V148.742Z" fill="#3FCDE3"/>
<path d="M347.958 154.84H318.383V158.104H347.958V154.84Z" fill="#3FCDE3"/>
<path d="M347.958 160.938H318.383V164.201H347.958V160.938Z" fill="#3FCDE3"/>
<path d="M347.958 167.031H318.383V170.295H347.958V167.031Z" fill="#3FCDE3"/>
<path d="M347.958 173.188H318.383V176.451H347.958V173.188Z" fill="#3FCDE3"/>
<path d="M381.546 148.742H351.971V152.006H381.546V148.742Z" fill="#3FCDE3"/>
<path d="M381.546 154.84H351.971V158.104H381.546V154.84Z" fill="#3FCDE3"/>
<path d="M381.546 160.938H351.971V164.201H381.546V160.938Z" fill="#3FCDE3"/>
<path d="M381.546 167.031H351.971V170.295H381.546V167.031Z" fill="#3FCDE3"/>
<path d="M381.546 173.188H351.971V176.451H381.546V173.188Z" fill="#3FCDE3"/>
<path d="M452.611 148.742H385.498V152.006H452.611V148.742Z" fill="#3FCDE3"/>
<path d="M452.611 154.84H385.497V158.104H452.611V154.84Z" fill="#3FCDE3"/>
<path d="M452.611 160.938H385.497V164.201H452.611V160.938Z" fill="#3FCDE3"/>
<path d="M452.611 167.031H385.497V170.295H452.611V167.031Z" fill="#3FCDE3"/>
<path d="M452.611 173.188H385.497V176.451H452.611V173.188Z" fill="#3FCDE3"/>
<path d="M452.549 198.93H318.383V202.193H452.549V198.93Z" fill="#3FCDE3"/>
<path d="M432.174 205.027H318.383V208.291H432.174V205.027Z" fill="#3FCDE3"/>
<path d="M432.174 211.121H318.383V214.385H432.174V211.121Z" fill="#3FCDE3"/>
<path d="M374.136 223.375H318.383V226.639H374.136V223.375Z" fill="#3FCDE3"/>
<path d="M374.136 229.535H318.383V232.799H374.136V229.535Z" fill="#3FCDE3"/>
<path d="M452.549 136.117H318.383V142.706H452.549V136.117Z" fill="#01496E"/>
<path d="M452.549 186.184H318.383V192.773H452.549V186.184Z" fill="#01496E"/>
<path d="M364.443 52H321.1V59.328H364.443V52Z" fill="white"/>
<path d="M449.894 52H371.914V59.328H449.894V52Z" fill="white"/>
<path d="M438.965 217.957C430.26 217.957 423.221 224.977 423.221 233.66C423.221 242.343 430.26 249.363 438.965 249.363C447.671 249.363 454.71 242.343 454.71 233.66C454.71 224.977 447.609 217.957 438.965 217.957ZM438.965 246.715C431.742 246.715 425.876 240.865 425.876 233.66C425.876 226.455 431.742 220.605 438.965 220.605C446.189 220.605 452.055 226.455 452.055 233.66C452.055 240.865 446.189 246.715 438.965 246.715Z" fill="#E57020"/>
<path d="M432.854 227.564C429.52 230.89 429.52 236.309 432.854 239.634L444.955 227.564C441.683 224.239 436.249 224.239 432.854 227.564Z" fill="#E57020"/>
<path d="M445.017 227.566L432.916 239.636C436.25 242.961 441.683 242.961 445.017 239.636C448.351 236.311 448.351 230.953 445.017 227.566Z" fill="#BF3E00"/>
</g>
<g filter="url(#filter9_d)">
<path d="M446.406 51.7383H271.553V245.098H446.406V51.7383Z" fill="white"/>
<path d="M428.069 13.3125H271.553V51.7381H446.406V31.6016V13.3125H428.069Z" fill="#01496E"/>
<path d="M426.031 64.6094H291.866V71.1984H426.031V64.6094Z" fill="#01496E"/>
<path d="M426.031 77.7266H291.866V80.9903H426.031V77.7266Z" fill="#3FCDE3"/>
<path d="M364.104 83.8203H291.866V87.084H364.104V83.8203Z" fill="#3FCDE3"/>
<path d="M394.481 89.918H291.866V93.1817H394.481V89.918Z" fill="#3FCDE3"/>
<path d="M411.707 96.0156H291.866V99.2793H411.707V96.0156Z" fill="#3FCDE3"/>
<path d="M411.707 102.172H291.866V105.436H411.707V102.172Z" fill="#3FCDE3"/>
<path d="M321.441 127.234H291.866V130.498H321.441V127.234Z" fill="#3FCDE3"/>
<path d="M321.44 133.332H291.866V136.596H321.44V133.332Z" fill="#3FCDE3"/>
<path d="M321.44 139.43H291.866V142.693H321.44V139.43Z" fill="#3FCDE3"/>
<path d="M321.44 145.523H291.866V148.787H321.44V145.523Z" fill="#3FCDE3"/>
<path d="M321.44 151.68H291.866V154.943H321.44V151.68Z" fill="#3FCDE3"/>
<path d="M355.029 127.234H325.455V130.498H355.029V127.234Z" fill="#3FCDE3"/>
<path d="M355.028 133.332H325.454V136.596H355.028V133.332Z" fill="#3FCDE3"/>
<path d="M355.028 139.43H325.454V142.693H355.028V139.43Z" fill="#3FCDE3"/>
<path d="M355.028 145.523H325.454V148.787H355.028V145.523Z" fill="#3FCDE3"/>
<path d="M355.028 151.68H325.454V154.943H355.028V151.68Z" fill="#3FCDE3"/>
<path d="M426.093 127.234H358.979V130.498H426.093V127.234Z" fill="#3FCDE3"/>
<path d="M426.093 133.332H358.979V136.596H426.093V133.332Z" fill="#3FCDE3"/>
<path d="M426.093 139.43H358.979V142.693H426.093V139.43Z" fill="#3FCDE3"/>
<path d="M426.093 145.523H358.979V148.787H426.093V145.523Z" fill="#3FCDE3"/>
<path d="M426.093 151.68H358.979V154.943H426.093V151.68Z" fill="#3FCDE3"/>
<path d="M426.031 177.422H291.866V180.686H426.031V177.422Z" fill="#3FCDE3"/>
<path d="M405.656 183.52H291.866V186.783H405.656V183.52Z" fill="#3FCDE3"/>
<path d="M405.656 189.613H291.866V192.877H405.656V189.613Z" fill="#3FCDE3"/>
<path d="M347.619 201.867H291.866V205.131H347.619V201.867Z" fill="#3FCDE3"/>
<path d="M347.619 208.027H291.866V211.291H347.619V208.027Z" fill="#3FCDE3"/>
<path d="M426.031 114.609H291.866V121.198H426.031V114.609Z" fill="#01496E"/>
<path d="M426.031 164.676H291.866V171.265H426.031V164.676Z" fill="#01496E"/>
<path d="M337.925 30.4922H294.583V37.8201H337.925V30.4922Z" fill="white"/>
<path d="M423.376 30.4922H345.396V37.8201H423.376V30.4922Z" fill="white"/>
<path d="M412.447 196.449C403.742 196.449 396.703 203.469 396.703 212.152C396.703 220.835 403.742 227.855 412.447 227.855C421.153 227.855 428.192 220.835 428.192 212.152C428.192 203.469 421.091 196.449 412.447 196.449ZM412.447 225.207C405.224 225.207 399.358 219.357 399.358 212.152C399.358 204.947 405.224 199.097 412.447 199.097C419.671 199.097 425.537 204.947 425.537 212.152C425.537 219.357 419.671 225.207 412.447 225.207Z" fill="#E57020"/>
<path d="M406.336 206.056C403.001 209.382 403.001 214.801 406.336 218.126L418.437 206.056C415.165 202.731 409.731 202.731 406.336 206.056Z" fill="#E57020"/>
<path d="M418.499 206.059L406.397 218.128C409.732 221.453 415.165 221.453 418.499 218.128C421.833 214.803 421.833 209.445 418.499 206.059Z" fill="#BF3E00"/>
</g>
</g>
<path d="M201.568 234.027C201.568 234.027 210.157 230.877 212.127 232.137C214.097 233.319 206.217 237.256 200.858 236.154L201.568 234.027Z" fill="white"/>
<path d="M202.198 233.161C202.513 234.657 202.671 236.154 202.828 237.65C172.412 238.359 175.012 237.886 152.555 219.065C149.087 216.23 149.797 215.285 152.397 213.316C152.003 212.607 152.003 212.607 152.397 213.316C154.919 211.347 155.628 212.529 158.543 215.127C177.849 232.531 174.776 233.476 202.198 233.161Z" fill="#00183A"/>
<path d="M150.821 361.288C150.742 361.288 150.584 361.288 150.505 361.288C149.56 361.131 149.008 360.186 149.166 359.319L151.609 347.428C151.766 346.483 152.712 345.932 153.579 346.089C154.524 346.247 155.076 347.192 154.918 348.058L152.475 359.949C152.318 360.737 151.609 361.288 150.821 361.288Z" fill="white"/>
<path d="M148.772 359.004C148.772 359.004 147.748 363.335 148.772 363.493C149.797 363.65 164.847 364.044 164.926 363.335C165.241 360.973 152.949 358.768 151.688 359.004C150.427 359.24 148.851 358.374 148.772 359.004Z" fill="#003057"/>
<path d="M155.154 354.911C153.263 354.99 151.451 354.99 149.56 354.832C154.13 325.773 150.584 283.642 139.08 256.079C143.65 254.347 148.22 252.614 152.791 251.039C160.355 279.94 157.834 325.773 155.154 354.911Z" fill="#00183A"/>
<path d="M136.007 361.288C135.928 361.288 135.77 361.288 135.691 361.288C134.746 361.131 134.194 360.186 134.352 359.319L136.795 347.428C136.952 346.483 137.898 345.932 138.765 346.089C139.71 346.247 140.262 347.192 140.104 348.058L137.661 359.949C137.504 360.737 136.795 361.288 136.007 361.288Z" fill="white"/>
<path d="M133.879 359.004C133.879 359.004 132.855 363.335 133.879 363.493C134.903 363.65 149.954 364.044 150.033 363.335C150.348 360.973 138.055 358.768 136.795 359.004C135.613 359.24 134.037 358.374 133.879 359.004Z" fill="#003057"/>
<path d="M139.71 355.066C137.819 354.908 136.006 354.751 134.115 354.436C141.207 327.897 142.389 289.152 135.455 260.802C134.667 257.573 135.849 251.351 139.08 250.564C141.837 249.855 145.305 252.139 148.063 251.43C152.633 280.962 145.383 326.322 139.71 355.066Z" fill="#00183A"/>
<path d="M155.47 264.112C152.87 262.615 146.802 262.93 144.123 261.828C140.183 260.174 138.135 260.095 134.037 259.465C136.086 246.708 139.238 233.478 140.814 220.878C141.129 218.2 141.287 216.625 142.232 214.735C143.414 212.215 145.148 210.719 147.118 210.089C149.56 209.301 152.318 210.01 154.84 211.979C155.234 212.215 155.549 212.53 155.943 213.002C157.362 214.656 158.386 217.413 157.677 222.216C155.864 234.108 155.707 251.354 155.47 264.112Z" fill="#00183A"/>
<path d="M155.864 213.002L154.051 220.878L151.766 230.8L149.481 220.72L147.117 210.089C149.56 209.301 152.318 210.01 154.839 211.979C155.155 212.294 155.549 212.609 155.864 213.002Z" fill="#FFE29D"/>
<path d="M149.244 202.528C151.136 207.253 155.942 209.852 158.858 208.671C161.773 207.489 161.616 203.079 159.725 198.354C157.833 193.629 154.524 192.133 151.608 193.236C148.772 194.417 147.353 197.803 149.244 202.528Z" fill="white"/>
<path d="M147.748 204.97C148.22 206.073 149.875 207.018 150.663 206.703C151.451 206.388 151.294 205.443 150.9 204.34C150.506 203.238 149.402 202.45 148.614 202.765C147.748 203.08 147.275 203.868 147.748 204.97Z" fill="white"/>
<path d="M149.954 201.977L155.312 202.528C155.233 203.237 154.445 210.167 153.657 212.687C153.342 213.474 151.924 213.553 150.584 212.923C149.402 212.372 148.614 211.427 148.693 210.639C149.166 209.143 149.717 204.497 149.954 201.977Z" fill="white"/>
<path d="M151.53 204.498C152.475 203.789 153.027 204.734 154.682 206.152C156.337 207.569 159.725 207.963 160.828 203.71C161.537 200.954 162.168 205.837 162.168 205.837C162.01 208.199 161.143 209.381 159.41 210.089C157.046 211.034 153.736 210.168 151.136 207.806C150.821 206.467 150.821 204.971 151.53 204.498Z" fill="#00183A"/>
<path d="M160.986 203.473C160.986 203.473 160.907 203.473 160.828 203.551C159.804 203.866 155.234 205.363 154.446 207.016C153.579 208.828 156.81 206.701 157.913 205.678C159.016 204.575 159.962 204.969 160.907 204.89C161.695 204.733 162.326 203.709 160.986 203.473Z" fill="#00183A"/>
<path d="M147.354 199.773C147.354 199.773 147.117 196.308 149.087 194.26C151.057 192.213 155.706 190.559 158.385 194.418C158.385 194.418 160.04 197.332 156.415 198.985C152.791 200.639 152.791 198.434 151.53 200.954C150.269 203.395 148.142 202.529 147.905 203.08L147.354 199.773Z" fill="#00183A"/>
<path d="M154.052 220.878L151.767 230.8L149.481 220.72L150.821 214.656L152.712 215.05L154.052 220.878Z" fill="#E57020"/>
<path d="M262.77 186.662L255.113 180.469L182.181 270.513L189.837 276.706L262.77 186.662Z" fill="#00183A"/>
<path d="M243.228 215.457L230.978 205.547L178.076 270.861L190.326 280.771L243.228 215.457Z" fill="#01496E"/>
<circle opacity="0.5" cx="295.838" cy="137.918" r="61.9839" fill="white"/>
<path d="M334.899 89.6811C308.265 68.1034 269.181 72.2772 247.59 98.8948C225.999 125.513 230.175 164.573 256.809 186.15C283.443 207.728 322.528 203.554 344.118 176.937C365.63 150.319 361.533 111.259 334.899 89.6811ZM260.355 181.819C236.085 162.21 232.382 126.694 252.003 102.439C271.624 78.1835 307.162 74.4822 331.432 94.0911C355.702 113.7 359.405 149.216 339.784 173.472C320.085 197.648 284.546 201.428 260.355 181.819Z" fill="#00183A"/>
<path d="M176.667 258.441C176.667 258.441 185.65 259.938 186.832 261.985C187.935 264.033 179.189 263.481 175.012 259.938L176.667 258.441Z" fill="white"/>
<path d="M177.612 258.048C177.139 259.545 176.588 260.883 175.957 262.222C149.166 247.811 151.609 248.677 141.444 221.272C139.868 217.098 140.971 216.626 144.123 216.153C144.123 215.366 144.123 215.366 144.123 216.153C147.275 215.681 147.275 217.019 148.536 220.799C156.809 245.448 153.657 244.818 177.612 258.048Z" fill="#00183A"/>
<defs>
<filter id="filter0_d" x="508.691" y="203.535" width="180.853" height="237.785" filterUnits="userSpaceOnUse" color-interpolation-filters="sRGB">
<feFlood flood-opacity="0" result="BackgroundImageFix"/>
<feColorMatrix in="SourceAlpha" type="matrix" values="0 0 0 0 0 0 0 0 0 0 0 0 0 0 0 0 0 0 127 0"/>
<feOffset dx="1" dy="2"/>
<feGaussianBlur stdDeviation="1.5"/>
<feColorMatrix type="matrix" values="0 0 0 0 0 0 0 0 0 0 0 0 0 0 0 0 0 0 0.15 0"/>
<feBlend mode="normal" in2="BackgroundImageFix" result="effect1_dropShadow"/>
<feBlend mode="normal" in="SourceGraphic" in2="effect1_dropShadow" result="shape"/>
</filter>
<filter id="filter1_d" x="481.891" y="182.117" width="180.853" height="237.785" filterUnits="userSpaceOnUse" color-interpolation-filters="sRGB">
<feFlood flood-opacity="0" result="BackgroundImageFix"/>
<feColorMatrix in="SourceAlpha" type="matrix" values="0 0 0 0 0 0 0 0 0 0 0 0 0 0 0 0 0 0 127 0"/>
<feOffset dx="1" dy="2"/>
<feGaussianBlur stdDeviation="1.5"/>
<feColorMatrix type="matrix" values="0 0 0 0 0 0 0 0 0 0 0 0 0 0 0 0 0 0 0.15 0"/>
<feBlend mode="normal" in2="BackgroundImageFix" result="effect1_dropShadow"/>
<feBlend mode="normal" in="SourceGraphic" in2="effect1_dropShadow" result="shape"/>
</filter>
<filter id="filter2_d" x="454.831" y="160.699" width="180.853" height="237.785" filterUnits="userSpaceOnUse" color-interpolation-filters="sRGB">
<feFlood flood-opacity="0" result="BackgroundImageFix"/>
<feColorMatrix in="SourceAlpha" type="matrix" values="0 0 0 0 0 0 0 0 0 0 0 0 0 0 0 0 0 0 127 0"/>
<feOffset dx="1" dy="2"/>
<feGaussianBlur stdDeviation="1.5"/>
<feColorMatrix type="matrix" values="0 0 0 0 0 0 0 0 0 0 0 0 0 0 0 0 0 0 0.15 0"/>
<feBlend mode="normal" in2="BackgroundImageFix" result="effect1_dropShadow"/>
<feBlend mode="normal" in="SourceGraphic" in2="effect1_dropShadow" result="shape"/>
</filter>
<filter id="filter3_d" x="428.243" y="139.906" width="180.853" height="237.785" filterUnits="userSpaceOnUse" color-interpolation-filters="sRGB">
<feFlood flood-opacity="0" result="BackgroundImageFix"/>
<feColorMatrix in="SourceAlpha" type="matrix" values="0 0 0 0 0 0 0 0 0 0 0 0 0 0 0 0 0 0 127 0"/>
<feOffset dx="1" dy="2"/>
<feGaussianBlur stdDeviation="1.5"/>
<feColorMatrix type="matrix" values="0 0 0 0 0 0 0 0 0 0 0 0 0 0 0 0 0 0 0.15 0"/>
<feBlend mode="normal" in2="BackgroundImageFix" result="effect1_dropShadow"/>
<feBlend mode="normal" in="SourceGraphic" in2="effect1_dropShadow" result="shape"/>
</filter>
<filter id="filter4_d" x="401.673" y="118.809" width="180.853" height="237.785" filterUnits="userSpaceOnUse" color-interpolation-filters="sRGB">
<feFlood flood-opacity="0" result="BackgroundImageFix"/>
<feColorMatrix in="SourceAlpha" type="matrix" values="0 0 0 0 0 0 0 0 0 0 0 0 0 0 0 0 0 0 127 0"/>
<feOffset dx="1" dy="2"/>
<feGaussianBlur stdDeviation="1.5"/>
<feColorMatrix type="matrix" values="0 0 0 0 0 0 0 0 0 0 0 0 0 0 0 0 0 0 0.15 0"/>
<feBlend mode="normal" in2="BackgroundImageFix" result="effect1_dropShadow"/>
<feBlend mode="normal" in="SourceGraphic" in2="effect1_dropShadow" result="shape"/>
</filter>
<filter id="filter5_d" x="375.42" y="97.5117" width="180.853" height="237.786" filterUnits="userSpaceOnUse" color-interpolation-filters="sRGB">
<feFlood flood-opacity="0" result="BackgroundImageFix"/>
<feColorMatrix in="SourceAlpha" type="matrix" values="0 0 0 0 0 0 0 0 0 0 0 0 0 0 0 0 0 0 127 0"/>
<feOffset dx="1" dy="2"/>
<feGaussianBlur stdDeviation="1.5"/>
<feColorMatrix type="matrix" values="0 0 0 0 0 0 0 0 0 0 0 0 0 0 0 0 0 0 0.15 0"/>
<feBlend mode="normal" in2="BackgroundImageFix" result="effect1_dropShadow"/>
<feBlend mode="normal" in="SourceGraphic" in2="effect1_dropShadow" result="shape"/>
</filter>
<filter id="filter6_d" x="348.907" y="76.8203" width="180.854" height="237.785" filterUnits="userSpaceOnUse" color-interpolation-filters="sRGB">
<feFlood flood-opacity="0" result="BackgroundImageFix"/>
<feColorMatrix in="SourceAlpha" type="matrix" values="0 0 0 0 0 0 0 0 0 0 0 0 0 0 0 0 0 0 127 0"/>
<feOffset dx="1" dy="2"/>
<feGaussianBlur stdDeviation="1.5"/>
<feColorMatrix type="matrix" values="0 0 0 0 0 0 0 0 0 0 0 0 0 0 0 0 0 0 0.15 0"/>
<feBlend mode="normal" in2="BackgroundImageFix" result="effect1_dropShadow"/>
<feBlend mode="normal" in="SourceGraphic" in2="effect1_dropShadow" result="shape"/>
</filter>
<filter id="filter7_d" x="322.195" y="55.2031" width="180.854" height="237.785" filterUnits="userSpaceOnUse" color-interpolation-filters="sRGB">
<feFlood flood-opacity="0" result="BackgroundImageFix"/>
<feColorMatrix in="SourceAlpha" type="matrix" values="0 0 0 0 0 0 0 0 0 0 0 0 0 0 0 0 0 0 127 0"/>
<feOffset dx="1" dy="2"/>
<feGaussianBlur stdDeviation="1.5"/>
<feColorMatrix type="matrix" values="0 0 0 0 0 0 0 0 0 0 0 0 0 0 0 0 0 0 0.15 0"/>
<feBlend mode="normal" in2="BackgroundImageFix" result="effect1_dropShadow"/>
<feBlend mode="normal" in="SourceGraphic" in2="effect1_dropShadow" result="shape"/>
</filter>
<filter id="filter8_d" x="296.07" y="33.8203" width="180.853" height="237.785" filterUnits="userSpaceOnUse" color-interpolation-filters="sRGB">
<feFlood flood-opacity="0" result="BackgroundImageFix"/>
<feColorMatrix in="SourceAlpha" type="matrix" values="0 0 0 0 0 0 0 0 0 0 0 0 0 0 0 0 0 0 127 0"/>
<feOffset dx="1" dy="2"/>
<feGaussianBlur stdDeviation="1.5"/>
<feColorMatrix type="matrix" values="0 0 0 0 0 0 0 0 0 0 0 0 0 0 0 0 0 0 0.15 0"/>
<feBlend mode="normal" in2="BackgroundImageFix" result="effect1_dropShadow"/>
<feBlend mode="normal" in="SourceGraphic" in2="effect1_dropShadow" result="shape"/>
</filter>
<filter id="filter9_d" x="269.553" y="12.3125" width="180.853" height="237.785" filterUnits="userSpaceOnUse" color-interpolation-filters="sRGB">
<feFlood flood-opacity="0" result="BackgroundImageFix"/>
<feColorMatrix in="SourceAlpha" type="matrix" values="0 0 0 0 0 0 0 0 0 0 0 0 0 0 0 0 0 0 127 0"/>
<feOffset dx="1" dy="2"/>
<feGaussianBlur stdDeviation="1.5"/>
<feColorMatrix type="matrix" values="0 0 0 0 0 0 0 0 0 0 0 0 0 0 0 0 0 0 0.15 0"/>
<feBlend mode="normal" in2="BackgroundImageFix" result="effect1_dropShadow"/>
<feBlend mode="normal" in="SourceGraphic" in2="effect1_dropShadow" result="shape"/>
</filter>
<clipPath id="clip0">
<rect width="398" height="387" fill="white" transform="translate(271.353 14)"/>
</clipPath>
</defs>
</svg>
